<!-- This is a placeholder SVG that will be replaced with actual content -->
<svg xmlns="http://www.w3.org/2000/svg" width="20" height="20" viewBox="0 0 20 20">
  <path d="M14.5,0h-9C2.4,0,0,2.4,0,5.5v9C0,17.6,2.4,20,5.5,20h9c3.1,0,5.5-2.4,5.5-5.5v-9C20,2.4,17.6,0,14.5,0z M18.2,14.5c0,2-1.6,3.7-3.7,3.7h-9c-2,0-3.7-1.6-3.7-3.7v-9c0-2,1.6-3.7,3.7-3.7h9c2,0,3.7,1.6,3.7,3.7V14.5z" fill="white"/>
  <path d="M10,4.8c-2.9,0-5.2,2.3-5.2,5.2s2.3,5.2,5.2,5.2s5.2-2.3,5.2-5.2S12.9,4.8,10,4.8z M10,13.3c-1.8,0-3.3-1.5-3.3-3.3S8.2,6.7,10,6.7s3.3,1.5,3.3,3.3S11.8,13.3,10,13.3z" fill="white"/>
  <circle cx="15.4" cy="4.5" r="1.2" fill="white"/>
</svg>