<!-- This is a placeholder SVG that will be replaced with actual content -->
<svg xmlns="http://www.w3.org/2000/svg" width="20" height="20" viewBox="0 0 20 20">
  <path d="M18.5,0h-17C0.7,0,0,0.7,0,1.5v17C0,19.3,0.7,20,1.5,20h17c0.8,0,1.5-0.7,1.5-1.5v-17C20,0.7,19.3,0,18.5,0z M6,17H3V8h3V17z M4.5,6.5c-1,0-1.8-0.8-1.8-1.8s0.8-1.8,1.8-1.8S6.3,3.8,6.3,4.8S5.5,6.5,4.5,6.5z M17,17h-3v-4.6c0-1.1,0-2.5-1.5-2.5c-1.5,0-1.8,1.2-1.8,2.4V17h-3V8h2.8v1.3h0c0.4-0.7,1.3-1.5,2.7-1.5c3,0,3.5,2,3.5,4.5V17z" fill="white"/>
</svg>